<svg xmlns="http://www.w3.org/2000/svg" width="1200" height="340" viewBox="0 0 1200 340" role="img" aria-labelledby="title desc">
  <title id="title">Codex Recall</title>
  <desc id="desc">Local memory. Lasting context. A small SQLite memory service for Codex.</desc>
  <defs>
    <linearGradient id="bg" x2="1" y2="1"><stop stop-color="#102922"/><stop offset="1" stop-color="#071713"/></linearGradient>
    <linearGradient id="accent" x2="1" y2="1"><stop stop-color="#b6f7d2"/><stop offset="1" stop-color="#59c7a0"/></linearGradient>
    <pattern id="grid" width="32" height="32" patternUnits="userSpaceOnUse"><path d="M32 0H0V32" fill="none" stroke="#b5edd6" stroke-opacity=".045"/></pattern>
  </defs>
  <rect width="1200" height="340" rx="20" fill="url(#bg)"/>
  <rect width="1200" height="340" rx="20" fill="url(#grid)"/>
  <g font-family="ui-sans-serif,system-ui,-apple-system,Segoe UI,sans-serif">
    <text x="72" y="79" fill="#89d6b4" font-size="14" font-weight="700" letter-spacing="3">PERSISTENT MEMORY · MCP · SQLITE</text>
    <text x="69" y="163" fill="#f1fcf5" font-size="66" font-weight="750" letter-spacing="-2">Codex Recall</text>
    <text x="72" y="210" fill="#b2cabc" font-size="23">Local memory. Lasting context.</text>
    <rect x="72" y="249" width="325" height="37" rx="18" fill="#193e30"/>
    <text x="91" y="273" fill="#d1efde" font-size="14">Six tools. One database. No models.</text>
  </g>
  <g transform="translate(885 88)" fill="none" stroke="url(#accent)" stroke-width="3">
    <ellipse cx="92" cy="25" rx="74" ry="25" fill="#12362a"/>
    <path d="M18 25v47c0 33 148 33 148 0V25M18 72v47c0 33 148 33 148 0V72M18 119v47c0 33 148 33 148 0v-47"/>
    <path d="M18 72c0 33 148 33 148 0M18 119c0 33 148 33 148 0" opacity=".6"/>
    <path d="M-35 103H18M166 103h52" stroke-dasharray="6 7" opacity=".6"/>
    <circle cx="-47" cy="103" r="9" fill="#85deb4"/><circle cx="230" cy="103" r="9" fill="#85deb4"/>
  </g>
</svg>
